# xmcd
# Track frame offsets:
# 150
# 13982
# 27330
# 43015
# 56475
# 73062
# 88180
# 101727
# 116445
# 132767
#
# Disc length: 1972 seconds
# Revision: 2
# Processed by: cddbd v1.4PL0 Copyright (c) Steve Scherf et al.
# Submitted via: VisiTrax 2.9.3.171 - For more info visit www.synapsa.com
#
DISCID=8907b20a
DTITLE=Various Artist - Hard Rockin' Country
DYEAR=1900
DGENRE=
TTITLE0=Dwight Yoakam - Guitars, Cadillacs
TTITLE1=Hank Williams Jr. - All My Rowdy Friends Are Coming Over Tonight
TTITLE2=Waylon Jennings - How Will The Wolf Survive
TTITLE3=John Andersom - Black Sheep
TTITLE4=Billy Joe Royal - Burn Like A Rocket
TTITLE5=Sawyer Brown - Betty's Bein' Bad
TTITLE6=T. Graham Brown - I Tell It Like It Used To Be
TTITLE7=Steve Warner - Life's Highway
TTITLE8=Restles Heart - Let The Heartache Ride
TTITLE9=Southern Pacific - Reno Bound
EXTD=
EXTT0=
EXTT1=
EXTT2=
EXTT3=
EXTT4=
EXTT5=
EXTT6=
EXTT7=
EXTT8=
EXTT9=
PLAYORDER=
